<svg width="41" height="9" viewBox="0 0 41 9" fill="none" xmlns="http://www.w3.org/2000/svg">
<path d="M34.0016 9C37.5849 9 40.5 6.98129 40.5 4.49995C40.5 2.01861 37.5849 0 34.0016 0C30.6122 0 27.8221 1.80637 27.53 4.1018H22.8529V3.1552L0.5 3.1552V5.84446L22.853 5.84446V4.89798H27.5301C27.8223 7.19352 30.6122 9 34.0016 9ZM21.9898 5.04839L1.36329 5.04839V3.95161L21.9898 3.95161V5.04839ZM28.3662 4.49995C28.3662 2.45778 30.8944 0.796403 34.0017 0.796403C37.1091 0.796403 39.6372 2.45778 39.6372 4.49995C39.6372 6.54222 37.1091 8.2037 34.0017 8.2037C30.8944 8.2037 28.3662 6.54222 28.3662 4.49995Z" fill="#DCCA87"/>
</svg>
